<?xml version="1.0" standalone="yes"?>

<svg version="1.1" viewBox="0.0 0.0 277.45931758530185 208.28346456692913" fill="none" stroke="none" stroke-linecap="square" stroke-miterlimit="10" xmlns="http://www.w3.org/2000/svg" xmlns:xlink="http://www.w3.org/1999/xlink"><clipPath id="p.0"><path d="m0 0l277.45932 0l0 208.28346l-277.45932 0l0 -208.28346z" clip-rule="nonzero"></path></clipPath><g clip-path="url(#p.0)"><path fill="#000000" fill-opacity="0.0" d="m0 0l277.45932 0l0 208.28346l-277.45932 0z" fill-rule="evenodd"></path><path fill="#ffd966" d="m162.20653 144.34747l0 0c-19.404114 -21.567207 -17.650589 -54.78103 3.9166107 -74.18515l0 0c10.356934 -9.318192 23.991318 -14.140453 37.903732 -13.405945c13.912415 0.7345047 26.963226 6.9656143 36.281418 17.322548l0 0c19.404114 21.567207 17.650604 54.78103 -3.9166107 74.18516l0 0c-21.5672 19.404114 -54.78102 17.650589 -74.18515 -3.9166107z" fill-rule="evenodd"></path><path stroke="#f1c232" stroke-width="2.0" stroke-linejoin="round" stroke-linecap="butt" d="m162.20653 144.34747l0 0c-19.404114 -21.567207 -17.650589 -54.78103 3.9166107 -74.18515l0 0c10.356934 -9.318192 23.991318 -14.140453 37.903732 -13.405945c13.912415 0.7345047 26.963226 6.9656143 36.281418 17.322548l0 0c19.404114 21.567207 17.650604 54.78103 -3.9166107 74.18516l0 0c-21.5672 19.404114 -54.78102 17.650589 -74.18515 -3.9166107z" fill-rule="evenodd"></path><path fill="#ffd966" d="m172.50317 135.10332l0 0c-14.294647 -15.892387 -12.99942 -40.363815 2.8929749 -54.658463l0 0c7.63179 -6.8645325 17.677933 -10.416191 27.92839 -9.873657c10.2504425 0.5425415 19.86554 5.1348343 26.730072 12.766624l0 0c14.294647 15.892395 12.99942 40.363823 -2.8929749 54.65847l0 0c-15.89238 14.294647 -40.363815 12.99942 -54.658463 -2.8929749z" fill-rule="evenodd"></path><path stroke="#f1c232" stroke-width="2.0" stroke-linejoin="round" stroke-linecap="butt" d="m172.50317 135.10332l0 0c-14.294647 -15.892387 -12.99942 -40.363815 2.8929749 -54.658463l0 0c7.63179 -6.8645325 17.677933 -10.416191 27.92839 -9.873657c10.2504425 0.5425415 19.86554 5.1348343 26.730072 12.766624l0 0c14.294647 15.892395 12.99942 40.363823 -2.8929749 54.65847l0 0c-15.89238 14.294647 -40.363815 12.99942 -54.658463 -2.8929749z" fill-rule="evenodd"></path><path fill="#ffd966" d="m182.86504 125.791046l0 0c-9.175461 -10.177971 -8.362747 -25.86702 1.8152161 -35.042465l0 0c4.8876343 -4.406212 11.325439 -6.690346 17.897186 -6.349922c6.5717316 0.34042358 12.739075 3.2775116 17.145294 8.165146l0 0c9.175446 10.177971 8.362732 25.86702 -1.8152313 35.042473l0 0c-10.1779785 9.175446 -25.86702 8.362747 -35.042465 -1.8152313z" fill-rule="evenodd"></path><path stroke="#f1c232" stroke-width="2.0" stroke-linejoin="round" stroke-linecap="butt" d="m182.86504 125.791046l0 0c-9.175461 -10.177971 -8.362747 -25.86702 1.8152161 -35.042465l0 0c4.8876343 -4.406212 11.325439 -6.690346 17.897186 -6.349922c6.5717316 0.34042358 12.739075 3.2775116 17.145294 8.165146l0 0c9.175446 10.177971 8.362732 25.86702 -1.8152313 35.042473l0 0c-10.1779785 9.175446 -25.86702 8.362747 -35.042465 -1.8152313z" fill-rule="evenodd"></path><path fill="#ffd966" d="m194.00995 115.771904l0 0c-3.6328125 -4.021576 -3.3176422 -10.226669 0.70391846 -13.859474l0 0c1.9312286 -1.7445374 4.4763794 -2.6504364 7.075531 -2.518425c2.5991516 0.13201141 5.0394135 1.2911224 6.783951 3.222351l0 0c3.6327972 4.0215683 3.3176422 10.226669 -0.7039337 13.859474l0 0c-4.0215607 3.6328049 -10.226669 3.3176422 -13.859467 -0.7039261z" fill-rule="evenodd"></path><path stroke="#f1c232" stroke-width="2.0" stroke-linejoin="round" stroke-linecap="butt" d="m194.00995 115.771904l0 0c-3.6328125 -4.021576 -3.3176422 -10.226669 0.70391846 -13.859474l0 0c1.9312286 -1.7445374 4.4763794 -2.6504364 7.075531 -2.518425c2.5991516 0.13201141 5.0394135 1.2911224 6.783951 3.222351l0 0c3.6327972 4.0215683 3.3176422 10.226669 -0.7039337 13.859474l0 0c-4.0215607 3.6328049 -10.226669 3.3176422 -13.859467 -0.7039261z" fill-rule="evenodd"></path><path fill="#ea9999" d="m31.867401 112.69835l0 0c-2.0325375 -28.937775 19.778465 -54.044174 48.71624 -56.076714l0 0c13.896408 -0.97605896 27.61139 3.6081848 38.127815 12.744247c10.516418 9.13607 16.97284 22.075577 17.948898 35.971985l0 0c2.0325317 28.937782 -19.778465 54.04418 -48.71624 56.076714l0 0c-28.937775 2.032547 -54.044174 -19.778458 -56.076714 -48.716232z" fill-rule="evenodd"></path><path stroke="#e06666" stroke-width="2.0" stroke-linejoin="round" stroke-linecap="butt" d="m31.867401 112.69835l0 0c-2.0325375 -28.937775 19.778465 -54.044174 48.71624 -56.076714l0 0c13.896408 -0.97605896 27.61139 3.6081848 38.127815 12.744247c10.516418 9.13607 16.97284 22.075577 17.948898 35.971985l0 0c2.0325317 28.937782 -19.778465 54.04418 -48.71624 56.076714l0 0c-28.937775 2.032547 -54.044174 -19.778458 -56.076714 -48.716232z" fill-rule="evenodd"></path><path fill="#ea9999" d="m45.670734 111.74357l0 0c-1.4947243 -21.32125 14.577854 -39.817253 35.899105 -41.311974l0 0c10.238823 -0.7177963 20.343437 2.661171 28.090935 9.393562c7.7474976 6.7323837 12.50325 16.266716 13.221039 26.505539l0 0c1.4947281 21.32125 -14.57785 39.817253 -35.8991 41.311974l0 0c-21.32125 1.4947205 -39.817257 -14.57785 -41.311977 -35.8991z" fill-rule="evenodd"></path><path stroke="#e06666" stroke-width="2.0" stroke-linejoin="round" stroke-linecap="butt" d="m45.670734 111.74357l0 0c-1.4947243 -21.32125 14.577854 -39.817253 35.899105 -41.311974l0 0c10.238823 -0.7177963 20.343437 2.661171 28.090935 9.393562c7.7474976 6.7323837 12.50325 16.266716 13.221039 26.505539l0 0c1.4947281 21.32125 -14.57785 39.817253 -35.8991 41.311974l0 0c-21.32125 1.4947205 -39.817257 -14.57785 -41.311977 -35.8991z" fill-rule="evenodd"></path><path fill="#ea9999" d="m59.567383 110.7752l0 0c-0.9736023 -13.667526 9.316856 -25.536507 22.984375 -26.510109l0 0c6.5633774 -0.46753693 13.043671 1.6913605 18.015274 6.00177c4.971611 4.310402 8.027298 10.419235 8.494835 16.982605l0 0c0.9736023 13.667526 -9.316849 25.536514 -22.984375 26.510117l0 0c-13.667526 0.9736023 -25.536507 -9.316856 -26.510109 -22.984383z" fill-rule="evenodd"></path><path stroke="#e06666" stroke-width="2.0" stroke-linejoin="round" stroke-linecap="butt" d="m59.567383 110.7752l0 0c-0.9736023 -13.667526 9.316856 -25.536507 22.984375 -26.510109l0 0c6.5633774 -0.46753693 13.043671 1.6913605 18.015274 6.00177c4.971611 4.310402 8.027298 10.419235 8.494835 16.982605l0 0c0.9736023 13.667526 -9.316849 25.536514 -22.984375 26.510117l0 0c-13.667526 0.9736023 -25.536507 -9.316856 -26.510109 -22.984383z" fill-rule="evenodd"></path><path fill="#ea9999" d="m74.51615 109.73118l0 0c-0.3904953 -5.404907 3.674492 -10.103004 9.0793915 -10.493492l0 0c2.5955276 -0.18752289 5.1592407 0.6637039 7.1271515 2.3664246c1.9679108 1.702713 3.1788254 4.1174393 3.3663406 6.712967l0 0c0.3904953 5.404907 -3.6744843 10.103004 -9.0793915 10.4935l0 0c-5.404907 0.39048767 -10.103004 -3.674492 -10.493492 -9.079399z" fill-rule="evenodd"></path><path stroke="#e06666" stroke-width="2.0" stroke-linejoin="round" stroke-linecap="butt" d="m74.51615 109.73118l0 0c-0.3904953 -5.404907 3.674492 -10.103004 9.0793915 -10.493492l0 0c2.5955276 -0.18752289 5.1592407 0.6637039 7.1271515 2.3664246c1.9679108 1.702713 3.1788254 4.1174393 3.3663406 6.712967l0 0c0.3904953 5.404907 -3.6744843 10.103004 -9.0793915 10.4935l0 0c-5.404907 0.39048767 -10.103004 -3.674492 -10.493492 -9.079399z" fill-rule="evenodd"></path><path fill="#ffffff" d="m91.76149 78.85695l0 0c0 -28.22121 22.877815 -51.099022 51.09903 -51.099022l0 0c13.552292 0 26.54953 5.3836327 36.13246 14.966557c9.5829315 9.582928 14.966553 22.580166 14.966553 36.132465l0 0c0 28.221214 -22.877808 51.09903 -51.099014 51.09903l0 0c-28.221214 0 -51.09903 -22.877815 -51.09903 -51.09903z" fill-rule="evenodd"></path><path stroke="#000000" stroke-width="2.0" stroke-linejoin="round" stroke-linecap="butt" d="m91.76149 78.85695l0 0c0 -28.22121 22.877815 -51.099022 51.09903 -51.099022l0 0c13.552292 0 26.54953 5.3836327 36.13246 14.966557c9.5829315 9.582928 14.966553 22.580166 14.966553 36.132465l0 0c0 28.221214 -22.877808 51.09903 -51.099014 51.09903l0 0c-28.221214 0 -51.09903 -22.877815 -51.09903 -51.09903z" fill-rule="evenodd"></path><path fill="#000000" d="m110.732864 74.11257l0 0c0 -5.8318405 4.7276382 -10.559483 10.559479 -10.559483l0 0c2.8005447 0 5.486389 1.1125145 7.466675 3.0928001c1.9802856 1.9802856 3.092804 4.66613 3.092804 7.4666824l0 0c0 5.8318405 -4.7276382 10.559479 -10.559479 10.559479l0 0c-5.8318405 0 -10.559479 -4.7276382 -10.559479 -10.559479z" fill-rule="evenodd"></path><path stroke="#000000" stroke-width="1.0" stroke-linejoin="round" stroke-linecap="butt" d="m110.732864 74.11257l0 0c0 -5.8318405 4.7276382 -10.559483 10.559479 -10.559483l0 0c2.8005447 0 5.486389 1.1125145 7.466675 3.0928001c1.9802856 1.9802856 3.092804 4.66613 3.092804 7.4666824l0 0c0 5.8318405 -4.7276382 10.559479 -10.559479 10.559479l0 0c-5.8318405 0 -10.559479 -4.7276382 -10.559479 -10.559479z" fill-rule="evenodd"></path><path fill="#000000" d="m153.8815 74.11257l0 0c0 -5.8318405 4.727646 -10.559483 10.559494 -10.559483l0 0c2.800537 0 5.486389 1.1125145 7.466675 3.0928001c1.9802856 1.9802856 3.092804 4.66613 3.092804 7.4666824l0 0c0 5.8318405 -4.727646 10.559479 -10.559479 10.559479l0 0c-5.831848 0 -10.559494 -4.7276382 -10.559494 -10.559479z" fill-rule="evenodd"></path><path stroke="#000000" stroke-width="1.0" stroke-linejoin="round" stroke-linecap="butt" d="m153.8815 74.11257l0 0c0 -5.8318405 4.727646 -10.559483 10.559494 -10.559483l0 0c2.800537 0 5.486389 1.1125145 7.466675 3.0928001c1.9802856 1.9802856 3.092804 4.66613 3.092804 7.4666824l0 0c0 5.8318405 -4.727646 10.559479 -10.559479 10.559479l0 0c-5.831848 0 -10.559494 -4.7276382 -10.559494 -10.559479z" fill-rule="evenodd"></path><path fill="#cfe2f3" d="m91.776276 69.885086l10.485313 -23.112709l81.227425 0l10.485306 23.112709z" fill-rule="evenodd"></path><path stroke="#000000" stroke-width="1.0" stroke-linejoin="round" stroke-linecap="butt" d="m91.776276 69.885086l10.485313 -23.112709l81.227425 0l10.485306 23.112709z" fill-rule="evenodd"></path><path fill="#000000" fill-opacity="0.0" d="m139.11697 263.31726l-51.17286 -101.90268" fill-rule="evenodd"></path><path stroke="#000000" stroke-width="1.0" stroke-linejoin="round" stroke-linecap="butt" d="m139.11697 263.31726l-51.17286 -101.90268" fill-rule="evenodd"></path><path fill="#000000" fill-opacity="0.0" d="m198.48795 161.67003l-49.25296 102.2719" fill-rule="evenodd"></path><path stroke="#000000" stroke-width="1.0" stroke-linejoin="round" stroke-linecap="butt" d="m198.48795 161.67003l-49.25296 102.2719" fill-rule="evenodd"></path><path fill="#000000" fill-opacity="0.0" d="m142.86052 129.95598l0 132.8427" fill-rule="evenodd"></path><path stroke="#000000" stroke-width="1.0" stroke-linejoin="round" stroke-linecap="butt" d="m142.86052 129.95598l0 132.8427" fill-rule="evenodd"></path><path fill="#000000" fill-opacity="0.0" d="m87.944115 161.41458l-51.24671 95.47839" fill-rule="evenodd"></path><path stroke="#000000" stroke-width="1.0" stroke-linejoin="round" stroke-linecap="butt" d="m87.944115 161.41458l-51.24671 95.47839" fill-rule="evenodd"></path><path fill="#000000" fill-opacity="0.0" d="m36.748814 256.89127l106.11171 -126.93529" fill-rule="evenodd"></path><path stroke="#000000" stroke-width="1.0" stroke-linejoin="round" stroke-linecap="butt" d="m36.748814 256.89127l106.11171 -126.93529" fill-rule="evenodd"></path><path fill="#000000" fill-opacity="0.0" d="m35.517513 259.28983l162.97043 -97.6198" fill-rule="evenodd"></path><path stroke="#000000" stroke-width="1.0" stroke-linejoin="round" stroke-linecap="butt" d="m35.517513 259.28983l162.97043 -97.6198" fill-rule="evenodd"></path><path fill="#000000" fill-opacity="0.0" d="m246.55943 261.57895l-48.071487 -99.90892" fill-rule="evenodd"></path><path stroke="#000000" stroke-width="1.0" stroke-linejoin="round" stroke-linecap="butt" d="m246.55943 261.57895l-48.071487 -99.90892" fill-rule="evenodd"></path><path fill="#000000" fill-opacity="0.0" d="m252.44281 261.6172l-109.58229 -131.66121" fill-rule="evenodd"></path><path stroke="#000000" stroke-width="1.0" stroke-linejoin="round" stroke-linecap="butt" d="m252.44281 261.6172l-109.58229 -131.66121" fill-rule="evenodd"></path><path fill="#000000" fill-opacity="0.0" d="m252.3914 263.98184l-164.4473 -102.56726" fill-rule="evenodd"></path><path stroke="#000000" stroke-width="1.0" stroke-linejoin="round" stroke-linecap="butt" d="m252.3914 263.98184l-164.4473 -102.56726" fill-rule="evenodd"></path><path fill="#ffffff" d="m-11.3412075 227.83199l304.82193 0l0 85.066574l-304.82193 0z" fill-rule="evenodd"></path></g></svg>

