<?xml version="1.0" standalone="yes"?>

<svg version="1.1" viewBox="0.0 0.0 279.7165354330709 209.78740157480314" fill="none" stroke="none" stroke-linecap="square" stroke-miterlimit="10" xmlns="http://www.w3.org/2000/svg" xmlns:xlink="http://www.w3.org/1999/xlink"><clipPath id="p.0"><path d="m0 0l279.71652 0l0 209.7874l-279.71652 0l0 -209.7874z" clip-rule="nonzero"></path></clipPath><g clip-path="url(#p.0)"><path fill="#000000" fill-opacity="0.0" d="m0 0l279.71652 0l0 209.7874l-279.71652 0z" fill-rule="evenodd"></path><path fill="#ffd966" d="m161.29831 144.58327l0 0c-19.338745 -21.493614 -17.591125 -54.59411 3.9034119 -73.932014l0 0c10.322037 -9.286392 23.910477 -14.092201 37.776 -13.360203c13.86554 0.73200226 26.872375 6.941845 36.159164 17.263447l0 0c19.33873 21.493607 17.59114 54.594093 -3.9033966 73.932014l0 0c-21.494537 19.337906 -54.59645 17.590363 -73.93518 -3.903244z" fill-rule="evenodd"></path><path stroke="#f1c232" stroke-width="2.0" stroke-linejoin="round" stroke-linecap="butt" d="m161.29831 144.58327l0 0c-19.338745 -21.493614 -17.591125 -54.59411 3.9034119 -73.932014l0 0c10.322037 -9.286392 23.910477 -14.092201 37.776 -13.360203c13.86554 0.73200226 26.872375 6.941845 36.159164 17.263447l0 0c19.33873 21.493607 17.59114 54.594093 -3.9033966 73.932014l0 0c-21.494537 19.337906 -54.59645 17.590363 -73.93518 -3.903244z" fill-rule="evenodd"></path><path fill="#ffd966" d="m171.56024 135.37065l0 0c-14.246475 -15.838158 -12.955612 -40.22608 2.8832245 -54.471954l0 0c7.606079 -6.84111 17.618378 -10.380646 27.83429 -9.839966c10.215912 0.54068756 19.798615 5.1173096 26.640015 12.723068l0 0c14.246475 15.838158 12.955612 40.22609 -2.8832245 54.471954l0 0c-15.838852 14.24588 -40.227814 12.955063 -54.474304 -2.8831024z" fill-rule="evenodd"></path><path stroke="#f1c232" stroke-width="2.0" stroke-linejoin="round" stroke-linecap="butt" d="m171.56024 135.37065l0 0c-14.246475 -15.838158 -12.955612 -40.22608 2.8832245 -54.471954l0 0c7.606079 -6.84111 17.618378 -10.380646 27.83429 -9.839966c10.215912 0.54068756 19.798615 5.1173096 26.640015 12.723068l0 0c14.246475 15.838158 12.955612 40.22609 -2.8832245 54.471954l0 0c-15.838852 14.24588 -40.227814 12.955063 -54.474304 -2.8831024z" fill-rule="evenodd"></path><path fill="#ffd966" d="m181.88719 126.09016l0 0c-9.144531 -10.143242 -8.334564 -25.778755 1.8091125 -34.92289l0 0c4.871155 -4.3911743 11.287277 -6.6675186 17.836868 -6.3282547c6.549591 0.3392563 12.696167 3.266327 17.087524 8.137283l0 0c9.144531 10.143242 8.334564 25.778755 -1.8091125 34.922897l0 0c-10.143677 9.144142 -25.779861 8.334206 -34.924393 -1.8090363z" fill-rule="evenodd"></path><path stroke="#f1c232" stroke-width="2.0" stroke-linejoin="round" stroke-linecap="butt" d="m181.88719 126.09016l0 0c-9.144531 -10.143242 -8.334564 -25.778755 1.8091125 -34.92289l0 0c4.871155 -4.3911743 11.287277 -6.6675186 17.836868 -6.3282547c6.549591 0.3392563 12.696167 3.266327 17.087524 8.137283l0 0c9.144531 10.143242 8.334564 25.778755 -1.8091125 34.922897l0 0c-10.143677 9.144142 -25.779861 8.334206 -34.924393 -1.8090363z" fill-rule="evenodd"></path><path fill="#ffd966" d="m192.99455 116.1052l0 0c-3.6205597 -4.0078506 -3.3064575 -10.191772 0.70155334 -13.81218l0 0c1.9247284 -1.7385864 4.4612885 -2.6413956 7.0516815 -2.5098343c2.5904083 0.13156128 5.0224457 1.2867203 6.761093 3.211357l0 0c3.6205597 4.0078506 3.3064728 10.191772 -0.70155334 13.81218l0 0c-4.008026 3.620407 -10.192215 3.3063278 -13.812775 -0.7015228z" fill-rule="evenodd"></path><path stroke="#f1c232" stroke-width="2.0" stroke-linejoin="round" stroke-linecap="butt" d="m192.99455 116.1052l0 0c-3.6205597 -4.0078506 -3.3064575 -10.191772 0.70155334 -13.81218l0 0c1.9247284 -1.7385864 4.4612885 -2.6413956 7.0516815 -2.5098343c2.5904083 0.13156128 5.0224457 1.2867203 6.761093 3.211357l0 0c3.6205597 4.0078506 3.3064728 10.191772 -0.70155334 13.81218l0 0c-4.008026 3.620407 -10.192215 3.3063278 -13.812775 -0.7015228z" fill-rule="evenodd"></path><path fill="#ea9999" d="m31.398363 113.04213l0 0c-2.02569 -28.839027 19.711817 -53.859756 48.552086 -55.88536l0 0c13.8495865 -0.9727287 27.518356 3.595871 37.999344 12.7007675c10.48098 9.104889 16.915642 22.000244 17.888405 35.849236l0 0c2.0256958 28.839035 -19.711815 53.859756 -48.55208 55.88536l0 0c-28.840263 2.0256042 -53.862064 -19.710968 -55.887756 -48.550003z" fill-rule="evenodd"></path><path stroke="#e06666" stroke-width="2.0" stroke-linejoin="round" stroke-linecap="butt" d="m31.398363 113.04213l0 0c-2.02569 -28.839027 19.711817 -53.859756 48.552086 -55.88536l0 0c13.8495865 -0.9727287 27.518356 3.595871 37.999344 12.7007675c10.48098 9.104889 16.915642 22.000244 17.888405 35.849236l0 0c2.0256958 28.839035 -19.711815 53.859756 -48.55208 55.88536l0 0c-28.840263 2.0256042 -53.862064 -19.710968 -55.887756 -48.550003z" fill-rule="evenodd"></path><path fill="#ea9999" d="m45.15518 112.090614l0 0c-1.489685 -21.248497 14.528732 -39.68139 35.778145 -41.171013l0 0c10.204323 -0.71533966 20.274887 2.652092 27.996277 9.361511c7.7213974 6.7094193 12.461121 16.211212 13.176491 26.4151l0 0c1.489685 21.248497 -14.528732 39.68138 -35.778137 41.171005l0 0c-21.249413 1.489624 -39.683086 -14.528107 -41.172775 -35.776604z" fill-rule="evenodd"></path><path stroke="#e06666" stroke-width="2.0" stroke-linejoin="round" stroke-linecap="butt" d="m45.15518 112.090614l0 0c-1.489685 -21.248497 14.528732 -39.68139 35.778145 -41.171013l0 0c10.204323 -0.71533966 20.274887 2.652092 27.996277 9.361511c7.7213974 6.7094193 12.461121 16.211212 13.176491 26.4151l0 0c1.489685 21.248497 -14.528732 39.68138 -35.778137 41.171005l0 0c-21.249413 1.489624 -39.683086 -14.528107 -41.172775 -35.776604z" fill-rule="evenodd"></path><path fill="#ea9999" d="m59.00501 111.12555l0 0c-0.97032547 -13.620888 9.285458 -25.449371 22.906925 -26.419647l0 0c6.5412674 -0.46595 12.999718 1.685585 17.954575 5.981285c4.954857 4.2957 8.000244 10.383682 8.466209 16.92466l0 0c0.97032166 13.620888 -9.285461 25.449371 -22.906929 26.419647l0 0c-13.621475 0.97029114 -25.450459 -9.285057 -26.42078 -22.905945z" fill-rule="evenodd"></path><path stroke="#e06666" stroke-width="2.0" stroke-linejoin="round" stroke-linecap="butt" d="m59.00501 111.12555l0 0c-0.97032547 -13.620888 9.285458 -25.449371 22.906925 -26.419647l0 0c6.5412674 -0.46595 12.999718 1.685585 17.954575 5.981285c4.954857 4.2957 8.000244 10.383682 8.466209 16.92466l0 0c0.97032166 13.620888 -9.285461 25.449371 -22.906929 26.419647l0 0c-13.621475 0.97029114 -25.450459 -9.285057 -26.42078 -22.905945z" fill-rule="evenodd"></path><path fill="#ea9999" d="m73.903404 110.08509l0 0c-0.38918304 -5.3864594 3.6621094 -10.068527 9.048798 -10.457687l0 0c2.5867844 -0.18688202 5.1418533 0.661438 7.103134 2.358345c1.9612808 1.696907 3.1681137 4.103401 3.3550034 6.690071l0 0c0.38917542 5.3864594 -3.6621094 10.068527 -9.048805 10.457687l0 0c-5.386688 0.38916016 -10.068954 -3.6619568 -10.45813 -9.048416z" fill-rule="evenodd"></path><path stroke="#e06666" stroke-width="2.0" stroke-linejoin="round" stroke-linecap="butt" d="m73.903404 110.08509l0 0c-0.38918304 -5.3864594 3.6621094 -10.068527 9.048798 -10.457687l0 0c2.5867844 -0.18688202 5.1418533 0.661438 7.103134 2.358345c1.9612808 1.696907 3.1681137 4.103401 3.3550034 6.690071l0 0c0.38917542 5.3864594 -3.6621094 10.068527 -9.048805 10.457687l0 0c-5.386688 0.38916016 -10.068954 -3.6619568 -10.45813 -9.048416z" fill-rule="evenodd"></path><path fill="#ffffff" d="m91.09064 79.316216l0 0c0 -28.124916 22.80072 -50.924664 50.926834 -50.924664l0 0c13.506638 0 26.460083 5.365261 36.01071 14.915489c9.550644 9.550224 14.916138 22.503109 14.916138 36.009174l0 0c0 28.124908 -22.800735 50.92466 -50.92685 50.92466l0 0c-28.126114 0 -50.926834 -22.799751 -50.926834 -50.92466z" fill-rule="evenodd"></path><path stroke="#000000" stroke-width="2.0" stroke-linejoin="round" stroke-linecap="butt" d="m91.09064 79.316216l0 0c0 -28.124916 22.80072 -50.924664 50.926834 -50.924664l0 0c13.506638 0 26.460083 5.365261 36.01071 14.915489c9.550644 9.550224 14.916138 22.503109 14.916138 36.009174l0 0c0 28.124908 -22.800735 50.92466 -50.92685 50.92466l0 0c-28.126114 0 -50.926834 -22.799751 -50.926834 -50.92466z" fill-rule="evenodd"></path><path fill="#000000" d="m109.99808 74.58802l0 0c0 -5.811943 4.711708 -10.523453 10.523903 -10.523453l0 0c2.7911072 0 5.467903 1.1087189 7.4415207 3.0822525c1.9736176 1.973526 3.0823822 4.6502075 3.0823822 7.4412003l0 0c0 5.811943 -4.7117157 10.523445 -10.523903 10.523445l0 0c-5.812195 0 -10.523903 -4.711502 -10.523903 -10.523445z" fill-rule="evenodd"></path><path stroke="#000000" stroke-width="1.0" stroke-linejoin="round" stroke-linecap="butt" d="m109.99808 74.58802l0 0c0 -5.811943 4.711708 -10.523453 10.523903 -10.523453l0 0c2.7911072 0 5.467903 1.1087189 7.4415207 3.0822525c1.9736176 1.973526 3.0823822 4.6502075 3.0823822 7.4412003l0 0c0 5.811943 -4.7117157 10.523445 -10.523903 10.523445l0 0c-5.812195 0 -10.523903 -4.711502 -10.523903 -10.523445z" fill-rule="evenodd"></path><path fill="#000000" d="m153.00133 74.58802l0 0c0 -5.811943 4.7117157 -10.523453 10.5239105 -10.523453l0 0c2.7911072 0 5.4678955 1.1087189 7.441513 3.0822525c1.9736176 1.973526 3.0823822 4.6502075 3.0823822 7.4412003l0 0c0 5.811943 -4.7117157 10.523445 -10.523895 10.523445l0 0c-5.812195 0 -10.5239105 -4.711502 -10.5239105 -10.523445z" fill-rule="evenodd"></path><path stroke="#000000" stroke-width="1.0" stroke-linejoin="round" stroke-linecap="butt" d="m153.00133 74.58802l0 0c0 -5.811943 4.7117157 -10.523453 10.5239105 -10.523453l0 0c2.7911072 0 5.4678955 1.1087189 7.441513 3.0822525c1.9736176 1.973526 3.0823822 4.6502075 3.0823822 7.4412003l0 0c0 5.811943 -4.7117157 10.523445 -10.523895 10.523445l0 0c-5.812195 0 -10.5239105 -4.711502 -10.5239105 -10.523445z" fill-rule="evenodd"></path><path fill="#000000" fill-opacity="0.0" d="m138.28656 263.1471l-51.000443 -101.55496" fill-rule="evenodd"></path><path stroke="#000000" stroke-width="1.0" stroke-linejoin="round" stroke-linecap="butt" d="m138.28656 263.1471l-51.000443 -101.55496" fill-rule="evenodd"></path><path fill="#000000" fill-opacity="0.0" d="m197.45747 161.84671l-49.087006 101.92291" fill-rule="evenodd"></path><path stroke="#000000" stroke-width="1.0" stroke-linejoin="round" stroke-linecap="butt" d="m197.45747 161.84671l-49.087006 101.92291" fill-rule="evenodd"></path><path fill="#000000" fill-opacity="0.0" d="m142.01747 130.24088l0 132.3894" fill-rule="evenodd"></path><path stroke="#000000" stroke-width="1.0" stroke-linejoin="round" stroke-linecap="butt" d="m142.01747 130.24088l0 132.3894" fill-rule="evenodd"></path><path fill="#000000" fill-opacity="0.0" d="m87.28612 161.59213l-51.074028 95.15259" fill-rule="evenodd"></path><path stroke="#000000" stroke-width="1.0" stroke-linejoin="round" stroke-linecap="butt" d="m87.28612 161.59213l-51.074028 95.15259" fill-rule="evenodd"></path><path fill="#000000" fill-opacity="0.0" d="m36.26333 256.74304l105.75414 -126.50217" fill-rule="evenodd"></path><path stroke="#000000" stroke-width="1.0" stroke-linejoin="round" stroke-linecap="butt" d="m36.26333 256.74304l105.75414 -126.50217" fill-rule="evenodd"></path><path fill="#000000" fill-opacity="0.0" d="m35.036175 259.13342l162.4213 -97.28671" fill-rule="evenodd"></path><path stroke="#000000" stroke-width="1.0" stroke-linejoin="round" stroke-linecap="butt" d="m35.036175 259.13342l162.4213 -97.28671" fill-rule="evenodd"></path><path fill="#000000" fill-opacity="0.0" d="m245.36697 261.41473l-47.9095 -99.56802" fill-rule="evenodd"></path><path stroke="#000000" stroke-width="1.0" stroke-linejoin="round" stroke-linecap="butt" d="m245.36697 261.41473l-47.9095 -99.56802" fill-rule="evenodd"></path><path fill="#000000" fill-opacity="0.0" d="m251.23053 261.45282l-109.21306 -131.21194" fill-rule="evenodd"></path><path stroke="#000000" stroke-width="1.0" stroke-linejoin="round" stroke-linecap="butt" d="m251.23053 261.45282l-109.21306 -131.21194" fill-rule="evenodd"></path><path fill="#000000" fill-opacity="0.0" d="m251.17929 263.80942l-163.89317 -102.217285" fill-rule="evenodd"></path><path stroke="#000000" stroke-width="1.0" stroke-linejoin="round" stroke-linecap="butt" d="m251.17929 263.80942l-163.89317 -102.217285" fill-rule="evenodd"></path><path fill="#ffffff" d="m-11.664574 228.58452l303.7948 0l0 96.10927l-303.7948 0z" fill-rule="evenodd"></path><path fill="#ffe599" d="m97.68953 50.867332l0 -42.057l13.205292 24.094772l12.140556 -23.303675l19.360619 22.721083l19.505524 -22.923458l11.101013 23.365002l12.600464 -23.70229l-0.29611206 41.222973z" fill-rule="evenodd"></path><path stroke="#000000" stroke-width="1.0" stroke-linejoin="round" stroke-linecap="butt" d="m97.68953 50.867332l0 -42.057l13.205292 24.094772l12.140556 -23.303675l19.360619 22.721083l19.505524 -22.923458l11.101013 23.365002l12.600464 -23.70229l-0.29611206 41.222973z" fill-rule="evenodd"></path></g></svg>

